<svg width="90" height="90" viewBox="0 0 90 90" fill="none" xmlns="http://www.w3.org/2000/svg">
<mask id="mask0_58_1372" style="mask-type:alpha" maskUnits="userSpaceOnUse" x="0" y="0" width="90" height="90">
<rect width="90" height="90" fill="#D9D9D9"/>
</mask>
<g mask="url(#mask0_58_1372)">
<path d="M29.4375 51.8363C31.1056 53.5044 33.1541 54.3384 35.5828 54.3384C38.0109 54.3384 40.0634 53.5044 41.7403 51.8363L55.5806 37.9969C57.2525 36.3244 58.0884 34.2738 58.0884 31.845C58.0884 29.4169 57.2544 27.3644 55.5863 25.6875C53.9094 24.0194 51.8569 23.1853 49.4287 23.1853C47 23.1853 44.9516 24.0194 43.2834 25.6875C41.1634 24.9231 39.0625 24.7478 36.9806 25.1616C34.8988 25.5747 33.1369 26.5025 31.695 27.945C30.2525 29.3869 29.3247 31.1488 28.9116 33.2306C28.4978 35.3125 28.6731 37.4134 29.4375 39.5334C27.7694 41.2103 26.9353 43.2628 26.9353 45.6909C26.9353 48.1197 27.7694 50.1681 29.4375 51.8363ZM24.375 80.625V65.5097C20.8125 62.2597 18.0469 58.535 16.0781 54.3356C14.1094 50.1356 13.125 45.765 13.125 41.2237C13.125 32.3769 16.2241 24.8572 22.4222 18.6647C28.6197 12.4716 36.1456 9.375 45 9.375C52.2838 9.375 58.7969 11.5519 64.5394 15.9056C70.2825 20.2587 74.0122 25.9066 75.7284 32.8491L80.1094 50.1534C80.3906 51.2228 80.1922 52.1937 79.5141 53.0662C78.8366 53.9387 77.9328 54.375 76.8028 54.375H69.375V66.3459C69.375 68.2103 68.7113 69.8063 67.3838 71.1338C66.0563 72.4613 64.4603 73.125 62.5959 73.125H54.375V80.625H48.75V67.5H62.5959C62.9328 67.5 63.2094 67.3919 63.4256 67.1756C63.6419 66.9594 63.75 66.6828 63.75 66.3459V48.75H73.875L70.3125 34.2188C68.875 28.5075 65.8006 23.8766 61.0894 20.3259C56.3775 16.7753 51.0144 15 45 15C37.75 15 31.5625 17.5347 26.4375 22.6041C21.3125 27.6734 18.75 33.8381 18.75 41.0981C18.75 44.8425 19.5156 48.3994 21.0469 51.7688C22.5781 55.1381 24.75 58.1331 27.5625 60.7538L30 63V80.625H24.375Z" fill="#6E6E6E"/>
<path d="M28.6505 52.3495C30.4175 54.1165 32.5874 55 35.1602 55C37.7322 55 39.9064 54.1165 41.6827 52.3495L56.3435 37.6896C58.1145 35.918 59 33.7458 59 31.1731C59 28.601 58.1165 26.4268 56.3495 24.6505C54.5732 22.8835 52.399 22 49.8269 22C47.2542 22 45.0843 22.8835 43.3173 24.6505C41.0716 23.8408 38.8461 23.6551 36.6408 24.0934C34.4355 24.531 32.5692 25.5138 31.0419 27.0419C29.5138 28.5692 28.531 30.4355 28.0934 32.6408C27.6551 34.8461 27.8408 37.0716 28.6505 39.3173C26.8835 41.0936 26 43.2678 26 45.8398C26 48.4126 26.8835 50.5825 28.6505 52.3495Z" fill="#CFB53B"/>
</g>
</svg>
