<svg width="90" height="90" viewBox="0 0 90 90" fill="none" xmlns="http://www.w3.org/2000/svg">
<mask id="mask0_58_1388" style="mask-type:alpha" maskUnits="userSpaceOnUse" x="0" y="0" width="90" height="90">
<rect width="90" height="90" fill="#D9D9D9"/>
</mask>
<g mask="url(#mask0_58_1388)">
<path d="M11.25 71.25V67.5H45.1444V71.25H11.25ZM21.0581 62.3081C19.3319 62.3081 17.8906 61.73 16.7344 60.5737C15.5781 59.4175 15 57.9763 15 56.25V24.8081C15 23.0819 15.5781 21.6406 16.7344 20.4844C17.8906 19.3281 19.3319 18.75 21.0581 18.75H68.9419C70.2356 18.75 71.3762 19.0997 72.3637 19.7991C73.3519 20.4984 74.0384 21.3987 74.4234 22.5H21.0581C20.4806 22.5 19.9516 22.7403 19.4709 23.2209C18.9903 23.7016 18.75 24.2306 18.75 24.8081V56.25C18.75 56.8269 18.9903 57.3556 19.4709 57.8363C19.9516 58.3175 20.4806 58.5581 21.0581 58.5581H45.1444V62.3081H21.0581ZM75.7209 66.2737V37.8609C75.7209 37.5241 75.6009 37.2356 75.3609 36.9956C75.1203 36.755 74.8319 36.6347 74.4956 36.6347H60.5044C60.1681 36.6347 59.8797 36.755 59.6391 36.9956C59.3991 37.2356 59.2791 37.5241 59.2791 37.8609V66.2737C59.2791 66.6106 59.3991 66.8991 59.6391 67.1391C59.8797 67.3797 60.1681 67.5 60.5044 67.5H74.4956C74.8319 67.5 75.1203 67.3797 75.3609 67.1391C75.6009 66.8991 75.7209 66.6106 75.7209 66.2737ZM60.0722 71.25C58.8103 71.25 57.7375 70.8084 56.8538 69.9253C55.9706 69.0416 55.5291 67.9687 55.5291 66.7069V37.4278C55.5291 36.1659 55.9706 35.0931 56.8538 34.2094C57.7375 33.3263 58.8103 32.8847 60.0722 32.8847H74.9278C76.1897 32.8847 77.2625 33.3263 78.1462 34.2094C79.0294 35.0931 79.4709 36.1659 79.4709 37.4278V66.7069C79.4709 67.9687 79.0294 69.0416 78.1462 69.9253C77.2625 70.8084 76.1897 71.25 74.9278 71.25H60.0722ZM67.4869 46.875C68.2119 46.875 68.8159 46.6241 69.2991 46.1222C69.7822 45.6197 70.0238 45.0338 70.0238 44.3644C70.0238 43.6394 69.7825 43.035 69.3 42.5513C68.8175 42.0681 68.2072 41.8266 67.4691 41.8266C66.7878 41.8266 66.2019 42.0681 65.7112 42.5513C65.2212 43.0338 64.9763 43.6441 64.9763 44.3822C64.9763 45.0634 65.2272 45.6491 65.7291 46.1391C66.2309 46.6297 66.8169 46.875 67.4869 46.875Z" fill="#6E6E6E"/>
<circle cx="67.5" cy="44.5" r="3.5" fill="#CFB53B"/>
</g>
</svg>
