<svg width="90" height="90" viewBox="0 0 90 90" fill="none" xmlns="http://www.w3.org/2000/svg">
<mask id="mask0_58_1376" style="mask-type:alpha" maskUnits="userSpaceOnUse" x="0" y="0" width="90" height="90">
<rect width="90" height="90" fill="#D9D9D9"/>
</mask>
<g mask="url(#mask0_58_1376)">
<path d="M76 68C76 64.287 74.525 60.726 71.8995 58.1005C69.274 55.475 65.713 54 62 54C58.287 54 54.726 55.475 52.1005 58.1005C49.475 60.726 48 64.287 48 68L62 68H76Z" fill="#CFB53B"/>
<path d="M41.2502 78.7498V74.9998H82.5002V78.7498H41.2502ZM45.0002 69.8079C45.0002 65.466 46.4377 61.7051 49.3127 58.5251C52.1877 55.3445 55.7502 53.5332 60.0002 53.0913V51.5407C60.0002 51.0551 60.1792 50.621 60.5373 50.2385C60.8955 49.8567 61.3414 49.6657 61.8752 49.6657C62.3608 49.6657 62.7945 49.8567 63.1764 50.2385C63.5589 50.621 63.7502 51.0551 63.7502 51.5407V53.0913C67.9858 53.5332 71.5445 55.3445 74.4264 58.5251C77.3089 61.7051 78.7502 65.466 78.7502 69.8079H45.0002ZM49.5077 66.0354H74.1273C73.373 63.2904 71.8814 61.0298 69.6527 59.2535C67.4245 57.4773 64.832 56.5892 61.8752 56.5892C58.9039 56.5892 56.2886 57.4773 54.0292 59.2535C51.7692 61.0298 50.262 63.2904 49.5077 66.0354ZM7.64453 44.711V14.1345H22.6445V18.9945L51.2017 10.6732L77.4517 18.8942V20.6248C77.4517 22.7885 76.5864 24.6517 74.8558 26.2142C73.1252 27.7767 71.058 28.5579 68.6542 28.5579H59.1348V30.3748C59.1348 31.6485 58.6936 32.8179 57.8111 33.8829C56.9292 34.9479 55.8895 35.7135 54.692 36.1798L31.5433 44.711H7.64453ZM11.3945 40.961H18.8945V17.8845H11.3945V40.961ZM22.6445 40.961H30.9517L53.4236 32.7045C54.0148 32.5026 54.4895 32.1526 54.8477 31.6545C55.2058 31.157 55.3848 30.5813 55.3848 29.9276V28.5579H48.152L37.1833 32.1917L35.942 28.601L47.5895 24.8079H68.6542C69.5048 24.8079 70.4724 24.5445 71.5567 24.0176C72.6411 23.4913 73.2792 22.6826 73.4711 21.5913L51.0142 14.6538L22.6445 22.9329V40.961Z" fill="#6E6E6E"/>
</g>
</svg>
