<svg width="90" height="90" viewBox="0 0 90 90" fill="none" xmlns="http://www.w3.org/2000/svg">
<mask id="mask0_58_1392" style="mask-type:alpha" maskUnits="userSpaceOnUse" x="0" y="0" width="90" height="90">
<rect width="90" height="90" fill="#D9D9D9"/>
</mask>
<g mask="url(#mask0_58_1392)">
<path d="M14.3513 75C12.6251 75 11.1838 74.4219 10.0276 73.2656C8.87134 72.1094 8.29321 70.6681 8.29321 68.9419V62.3081C8.29321 60.5819 8.87134 59.1406 10.0276 57.9844C11.1838 56.8281 12.6251 56.25 14.3513 56.25H34.471C36.1973 56.25 37.6385 56.8281 38.7948 57.9844C39.951 59.1406 40.5292 60.5819 40.5292 62.3081V68.9419C40.5292 70.6681 39.951 72.1094 38.7948 73.2656C37.6385 74.4219 36.1973 75 34.471 75H14.3513ZM55.6013 75C53.8751 75 52.4338 74.4219 51.2776 73.2656C50.1213 72.1094 49.5432 70.6681 49.5432 68.9419V21.0581C49.5432 19.3319 50.1213 17.8906 51.2776 16.7344C52.4338 15.5781 53.8751 15 55.6013 15H75.721C77.4473 15 78.8885 15.5781 80.0448 16.7344C81.201 17.8906 81.7792 19.3319 81.7792 21.0581V68.9419C81.7792 70.6681 81.201 72.1094 80.0448 73.2656C78.8885 74.4219 77.4473 75 75.721 75H55.6013ZM14.3513 71.25H34.471C35.1442 71.25 35.697 71.0338 36.1295 70.6013C36.5626 70.1681 36.7792 69.615 36.7792 68.9419V62.3081C36.7792 61.635 36.5626 61.0819 36.1295 60.6488C35.697 60.2163 35.1442 60 34.471 60H14.3513C13.6782 60 13.1251 60.2163 12.692 60.6488C12.2595 61.0819 12.0432 61.635 12.0432 62.3081V68.9419C12.0432 69.615 12.2595 70.1681 12.692 70.6013C13.1251 71.0338 13.6782 71.25 14.3513 71.25ZM55.6013 71.25H75.721C76.3942 71.25 76.947 71.0338 77.3795 70.6013C77.8126 70.1681 78.0292 69.615 78.0292 68.9419V21.0581C78.0292 20.385 77.8126 19.8319 77.3795 19.3987C76.947 18.9662 76.3942 18.75 75.721 18.75H55.6013C54.9282 18.75 54.3751 18.9662 53.942 19.3987C53.5095 19.8319 53.2932 20.385 53.2932 21.0581V68.9419C53.2932 69.615 53.5095 70.1681 53.942 70.6013C54.3751 71.0338 54.9282 71.25 55.6013 71.25ZM65.6251 65.3363C66.3988 65.3363 67.0492 65.0731 67.576 64.5469C68.1023 64.0206 68.3654 63.3703 68.3654 62.5959C68.3654 61.8703 68.1023 61.2322 67.576 60.6816C67.0492 60.1309 66.3988 59.8556 65.6251 59.8556C64.8988 59.8556 64.2607 60.1309 63.7107 60.6816C63.1601 61.2322 62.8848 61.8703 62.8848 62.5959C62.8848 63.3703 63.1601 64.0206 63.7107 64.5469C64.2607 65.0731 64.8988 65.3363 65.6251 65.3363ZM14.3513 47.3081C12.6251 47.3081 11.1838 46.73 10.0276 45.5737C8.87134 44.4175 8.29321 42.9763 8.29321 41.25V21.0581C8.29321 19.3319 8.87134 17.8906 10.0276 16.7344C11.1838 15.5781 12.6251 15 14.3513 15H34.5432C36.2695 15 37.7107 15.5781 38.867 16.7344C40.0232 17.8906 40.6013 19.3319 40.6013 21.0581V41.25C40.6013 42.9763 40.0232 44.4175 38.867 45.5737C37.7107 46.73 36.2695 47.3081 34.5432 47.3081H14.3513ZM28.9182 29.4234C29.6926 29.4234 30.3429 29.1481 30.8692 28.5975C31.3954 28.0469 31.6585 27.4087 31.6585 26.6831C31.6585 25.9087 31.3954 25.2584 30.8692 24.7322C30.3429 24.2053 29.6926 23.9419 28.9182 23.9419C28.1445 23.9419 27.4942 24.2053 26.9673 24.7322C26.441 25.2584 26.1779 25.9087 26.1779 26.6831C26.1779 27.4087 26.441 28.0469 26.9673 28.5975C27.4942 29.1481 28.1445 29.4234 28.9182 29.4234ZM12.0432 42.6272L20.1207 31.7306L29.0626 43.5581H34.5432C35.2163 43.5581 35.7692 43.3416 36.2017 42.9084C36.6348 42.4759 36.8513 41.9231 36.8513 41.25V21.0581C36.8513 20.385 36.6348 19.8319 36.2017 19.3987C35.7692 18.9662 35.2163 18.75 34.5432 18.75H14.3513C13.6782 18.75 13.1251 18.9662 12.692 19.3987C12.2595 19.8319 12.0432 20.385 12.0432 21.0581V42.6272Z" fill="#6E6E6E"/>
<circle cx="65.5" cy="62.5" r="3.5" fill="#CFB53B"/>
<circle cx="28.5" cy="26.5" r="3.5" fill="#CFB53B"/>
</g>
</svg>
