<svg width="90" height="90" viewBox="0 0 90 90" fill="none" xmlns="http://www.w3.org/2000/svg">
<mask id="mask0_58_1407" style="mask-type:alpha" maskUnits="userSpaceOnUse" x="0" y="0" width="90" height="90">
<rect width="90" height="90" fill="#D9D9D9"/>
</mask>
<g mask="url(#mask0_58_1407)">
<path d="M22.5 73.5581C20.7738 73.5581 19.3325 72.98 18.1763 71.8238C17.02 70.6675 16.4419 69.2263 16.4419 67.5C16.4419 65.7738 17.02 64.3325 18.1763 63.1763C19.3325 62.02 20.7738 61.4419 22.5 61.4419C24.2263 61.4419 25.6675 62.02 26.8238 63.1763C27.98 64.3325 28.5581 65.7738 28.5581 67.5C28.5581 69.2263 27.98 70.6675 26.8238 71.8238C25.6675 72.98 24.2263 73.5581 22.5 73.5581ZM52.5 73.5581C50.7738 73.5581 49.3325 72.98 48.1763 71.8238C47.02 70.6675 46.4419 69.2263 46.4419 67.5C46.4419 65.7738 47.02 64.3325 48.1763 63.1763C49.3325 62.02 50.7738 61.4419 52.5 61.4419C54.2263 61.4419 55.6675 62.02 56.8238 63.1763C57.98 64.3325 58.5581 65.7738 58.5581 67.5C58.5581 69.2263 57.98 70.6675 56.8238 71.8238C55.6675 72.98 54.2263 73.5581 52.5 73.5581ZM37.5 58.5581C35.7738 58.5581 34.3325 57.98 33.1763 56.8238C32.02 55.6675 31.4419 54.2263 31.4419 52.5C31.4419 50.7738 32.02 49.3325 33.1763 48.1763C34.3325 47.02 35.7738 46.4419 37.5 46.4419C39.2263 46.4419 40.6675 47.02 41.8238 48.1763C42.98 49.3325 43.5581 50.7738 43.5581 52.5C43.5581 54.2263 42.98 55.6675 41.8238 56.8238C40.6675 57.98 39.2263 58.5581 37.5 58.5581ZM67.5 58.5581C65.7738 58.5581 64.3325 57.98 63.1763 56.8238C62.02 55.6675 61.4419 54.2263 61.4419 52.5C61.4419 50.7738 62.02 49.3325 63.1763 48.1763C64.3325 47.02 65.7738 46.4419 67.5 46.4419C69.2263 46.4419 70.6675 47.02 71.8238 48.1763C72.98 49.3325 73.5581 50.7738 73.5581 52.5C73.5581 54.2263 72.98 55.6675 71.8238 56.8238C70.6675 57.98 69.2263 58.5581 67.5 58.5581ZM22.5 43.5581C20.7738 43.5581 19.3325 42.98 18.1763 41.8238C17.02 40.6675 16.4419 39.2263 16.4419 37.5C16.4419 35.7738 17.02 34.3325 18.1763 33.1763C19.3325 32.02 20.7738 31.4419 22.5 31.4419C24.2263 31.4419 25.6675 32.02 26.8238 33.1763C27.98 34.3325 28.5581 35.7738 28.5581 37.5C28.5581 39.2263 27.98 40.6675 26.8238 41.8238C25.6675 42.98 24.2263 43.5581 22.5 43.5581ZM52.5 43.5581C50.7738 43.5581 49.3325 42.98 48.1763 41.8238C47.02 40.6675 46.4419 39.2263 46.4419 37.5C46.4419 35.7738 47.02 34.3325 48.1763 33.1763C49.3325 32.02 50.7738 31.4419 52.5 31.4419C54.2263 31.4419 55.6675 32.02 56.8238 33.1763C57.98 34.3325 58.5581 35.7738 58.5581 37.5C58.5581 39.2263 57.98 40.6675 56.8238 41.8238C55.6675 42.98 54.2263 43.5581 52.5 43.5581ZM37.5 28.5581C35.7738 28.5581 34.3325 27.98 33.1763 26.8238C32.02 25.6675 31.4419 24.2263 31.4419 22.5C31.4419 20.7738 32.02 19.3325 33.1763 18.1763C34.3325 17.02 35.7738 16.4419 37.5 16.4419C39.2263 16.4419 40.6675 17.02 41.8238 18.1763C42.98 19.3325 43.5581 20.7738 43.5581 22.5C43.5581 24.2263 42.98 25.6675 41.8238 26.8238C40.6675 27.98 39.2263 28.5581 37.5 28.5581ZM67.5 28.5581C65.7738 28.5581 64.3325 27.98 63.1763 26.8238C62.02 25.6675 61.4419 24.2263 61.4419 22.5C61.4419 20.7738 62.02 19.3325 63.1763 18.1763C64.3325 17.02 65.7738 16.4419 67.5 16.4419C69.2263 16.4419 70.6675 17.02 71.8238 18.1763C72.98 19.3325 73.5581 20.7738 73.5581 22.5C73.5581 24.2263 72.98 25.6675 71.8238 26.8238C70.6675 27.98 69.2263 28.5581 67.5 28.5581Z" fill="#6E6E6E"/>
<circle cx="67.5" cy="52.5" r="6.5" fill="#CFB53B"/>
<circle cx="37.5" cy="22.5" r="6.5" fill="#CFB53B"/>
<circle cx="22.5" cy="67.5" r="6.5" fill="#CFB53B"/>
</g>
</svg>
