<svg width="80" height="80" viewBox="0 0 80 80" fill="none" xmlns="http://www.w3.org/2000/svg">
<rect x="0.5" y="0.5" width="79" height="79.0004" rx="39.5" fill="#E6E6E6"/>
<path d="M37.7922 24.1096C38.4395 25.2248 38.7632 25.7824 38.7632 26.3947C38.7632 27.007 38.4395 27.5646 37.7922 28.6798L34.7015 34.0044C34.0541 35.1196 33.7305 35.6772 33.1974 35.9833C32.6643 36.2895 32.0169 36.2895 30.7223 36.2895H24.5409C23.2462 36.2895 22.5989 36.2895 22.0658 35.9833C21.5327 35.6772 21.209 35.1196 20.5617 34.0044L17.471 28.6798C16.8237 27.5646 16.5 27.007 16.5 26.3947C16.5 25.7824 16.8237 25.2248 17.471 24.1096L20.5617 18.7851C21.209 17.6699 21.5327 17.1123 22.0658 16.8061C22.5989 16.5 23.2462 16.5 24.5409 16.5L30.7223 16.5C32.0169 16.5 32.6643 16.5 33.1974 16.8061C33.7305 17.1123 34.0541 17.6699 34.7015 18.7851L37.7922 24.1096Z" stroke="#6E6E6E" stroke-width="3.71053" stroke-linecap="round" stroke-linejoin="round"/>
<path d="M62.529 38.9514C63.1763 40.0666 63.5 40.6242 63.5 41.2365C63.5 41.8488 63.1763 42.4064 62.529 43.5216L59.4383 48.8462C58.791 49.9614 58.4673 50.519 57.9342 50.8251C57.4011 51.1313 56.7537 51.1313 55.4591 51.1313H49.2777C47.983 51.1313 47.3357 51.1313 46.8026 50.8251C46.2695 50.519 45.9458 49.9614 45.2985 48.8462L42.2078 43.5216C41.5605 42.4064 41.2368 41.8488 41.2368 41.2365C41.2368 40.6242 41.5605 40.0666 42.2078 38.9514L45.2985 33.6269C45.9458 32.5117 46.2695 31.9541 46.8026 31.6479C47.3357 31.3418 47.983 31.3418 49.2777 31.3418L55.4591 31.3418C56.7537 31.3418 57.4011 31.3418 57.9342 31.6479C58.4673 31.9541 58.791 32.5117 59.4383 33.6269L62.529 38.9514Z" stroke="#6E6E6E" stroke-width="3.71053" stroke-linecap="round" stroke-linejoin="round"/>
<path d="M37.7922 51.3196C38.4395 52.4348 38.7632 52.9924 38.7632 53.6047C38.7632 54.217 38.4395 54.7746 37.7922 55.8898L34.7015 61.2143C34.0541 62.3295 33.7305 62.8871 33.1974 63.1933C32.6643 63.4994 32.0169 63.4994 30.7223 63.4994H24.5409C23.2462 63.4994 22.5989 63.4994 22.0658 63.1933C21.5327 62.8871 21.209 62.3295 20.5617 61.2143L17.471 55.8898C16.8237 54.7746 16.5 54.217 16.5 53.6047C16.5 52.9924 16.8237 52.4348 17.471 51.3196L20.5617 45.9951C21.209 44.8799 21.5327 44.3222 22.0658 44.0161C22.5989 43.71 23.2462 43.71 24.5409 43.71L30.7223 43.71C32.0169 43.71 32.6643 43.71 33.1974 44.0161C33.7305 44.3222 34.0541 44.8799 34.7015 45.9951L37.7922 51.3196Z" stroke="#6E6E6E" stroke-width="3.71053" stroke-linecap="round" stroke-linejoin="round"/>
</svg>
