<svg width="90" height="90" viewBox="0 0 90 90" fill="none" xmlns="http://www.w3.org/2000/svg">
<mask id="mask0_58_1384" style="mask-type:alpha" maskUnits="userSpaceOnUse" x="0" y="0" width="90" height="90">
<rect width="90" height="90" fill="#D9D9D9"/>
</mask>
<g mask="url(#mask0_58_1384)">
<path d="M44.9278 76.2984C38.9997 76.2984 33.5681 74.7587 28.6331 71.6793C23.6981 68.6 19.8269 64.4328 17.0194 59.1778C15.6106 58.7209 14.3125 58.2475 13.125 57.7575C11.9375 57.2668 10.7019 56.7212 9.41813 56.1206C8.79312 55.8175 8.31719 55.38 7.99031 54.8081C7.66344 54.2356 7.5 53.5912 7.5 52.875V37.125C7.5 36.4087 7.66344 35.7643 7.99031 35.1918C8.31719 34.62 8.79312 34.1825 9.41813 33.8793C10.7019 33.2787 11.9375 32.7331 13.125 32.2425C14.3125 31.7525 15.6106 31.279 17.0194 30.8222C19.8269 25.5672 23.6981 21.4 28.6331 18.3206C33.5681 15.2412 38.9997 13.7015 44.9278 13.7015C50.8559 13.7015 56.2875 15.2412 61.2225 18.3206C66.1575 21.4 70.0288 25.5672 72.8363 30.8222C74.245 31.279 75.5431 31.7525 76.7306 32.2425C77.9181 32.7331 79.1538 33.2787 80.4375 33.8793C81.1106 34.2306 81.6225 34.6959 81.9731 35.2753C82.3244 35.8547 82.5 36.4953 82.5 37.1972V52.875C82.5 53.5769 82.3244 54.2175 81.9731 54.7968C81.6225 55.3762 81.1106 55.8175 80.4375 56.1206C79.1538 56.7212 77.9181 57.2668 76.7306 57.7575C75.5431 58.2475 74.245 58.7209 72.8363 59.1778C70.0288 64.4328 66.1575 68.6 61.2225 71.6793C56.2875 74.7587 50.8559 76.2984 44.9278 76.2984ZM44.9278 72.5484C49.5291 72.5484 53.7309 71.5134 57.5334 69.4434C61.3366 67.374 64.6203 64.505 67.3847 60.8362C63.8416 61.7594 60.1866 62.4759 56.4197 62.9859C52.6528 63.4953 48.8222 63.75 44.9278 63.75C41.0334 63.75 37.2028 63.4953 33.4359 62.9859C29.6691 62.4759 26.0141 61.7594 22.4709 60.8362C25.2353 64.505 28.5191 67.374 32.3222 69.4434C36.1253 71.5134 40.3272 72.5484 44.9278 72.5484ZM44.9278 17.4515C40.3272 17.4515 36.1253 18.4865 32.3222 20.5565C28.5191 22.6259 25.2353 25.495 22.4709 29.1637C26.0141 28.2406 29.6691 27.524 33.4359 27.014C37.2028 26.5047 41.0334 26.25 44.9278 26.25C48.8222 26.25 52.6528 26.5047 56.4197 27.014C60.1866 27.524 63.8416 28.2406 67.3847 29.1637C64.6203 25.495 61.3366 22.6259 57.5334 20.5565C53.7309 18.4865 49.5291 17.4515 44.9278 17.4515ZM45 60C51.3513 60 57.4125 59.3631 63.1838 58.0893C68.9556 56.815 74.1444 55.0769 78.75 52.875V37.125C74.1444 34.9231 68.9556 33.185 63.1838 31.9106C57.4125 30.6368 51.3513 30 45 30C38.6487 30 32.5875 30.6368 26.8163 31.9106C21.0444 33.185 15.8556 34.9231 11.25 37.125V52.875C15.8556 55.0769 21.0444 56.815 26.8163 58.0893C32.5875 59.3631 38.6487 60 45 60Z" fill="#6E6E6E"/>
<circle cx="44.5" cy="44.5" r="9.5" fill="#CFB53B"/>
</g>
</svg>
